<svg width="4" height="8" viewBox="0 0 4 8" fill="none" xmlns="http://www.w3.org/2000/svg">
<path d="M3.89139 4.31216L0.861476 7.8722C0.791398 7.9546 0.697849 8 0.598101 8C0.498353 8 0.404805 7.9546 0.334726 7.8722L0.111594 7.61008C-0.0335999 7.43929 -0.0335999 7.1617 0.111594 6.99116L2.65589 4.00166L0.108771 1.00884C0.0386925 0.926432 0 0.816579 0 0.699441C0 0.582174 0.0386925 0.472322 0.108771 0.389851L0.331903 0.127804C0.402037 0.0453982 0.49553 4.76837e-07 0.595278 4.76837e-07C0.695026 4.76837e-07 0.788575 0.0453982 0.858653 0.127804L3.89139 3.69109C3.96164 3.77376 4.00022 3.88413 4 4.00146C4.00022 4.11925 3.96164 4.22956 3.89139 4.31216Z" fill="#007EFF"/>
</svg>
