<svg width="20" height="10" viewBox="0 0 20 10" fill="none" xmlns="http://www.w3.org/2000/svg">
<path d="M19.2188 4.19355H2.67353L5.41431 1.37806C5.72013 1.06387 5.7213 0.553264 5.41693 0.237578C5.11255 -0.0781481 4.61786 -0.0793172 4.31204 0.234836L0.229858 4.42839C0.229585 4.42863 0.22939 4.42891 0.229155 4.42915C-0.0758836 4.74335 -0.0768601 5.25561 0.229077 5.57085C0.229351 5.57109 0.229546 5.57137 0.22978 5.57161L4.31196 9.76516C4.61775 10.0793 5.11243 10.0782 5.41685 9.76242C5.72122 9.44674 5.72005 8.93613 5.41423 8.62194L2.67353 5.80645H19.2188C19.6502 5.80645 20 5.4454 20 5C20 4.5546 19.6502 4.19355 19.2188 4.19355Z" fill="#1F2123"/>
</svg>
