<svg width="13" height="12" viewBox="0 0 13 12" fill="none" xmlns="http://www.w3.org/2000/svg">
<path d="M11.2127 0H1.78726C0.801788 0 0 0.804294 0 1.7932V7.58056C0 8.56724 0.798297 9.37026 1.78091 9.37377V12L5.54261 9.37377H11.2127C12.1982 9.37377 13 8.56931 13 7.58056V1.7932C13 0.804294 12.1982 0 11.2127 0ZM12.2383 7.58056C12.2383 8.14786 11.7782 8.60952 11.2127 8.60952H5.30363L2.54263 10.5372V8.60952H1.78726C1.22177 8.60952 0.761719 8.14786 0.761719 7.58056V1.7932C0.761719 1.22575 1.22177 0.76425 1.78726 0.76425H11.2127C11.7782 0.76425 12.2383 1.22575 12.2383 1.7932V7.58056Z" fill="white"/>
<path d="M3.47939 2.70043H9.52061V3.46468H3.47939V2.70043Z" fill="white"/>
<path d="M3.47939 4.33083H9.52061V5.09508H3.47939V4.33083Z" fill="white"/>
<path d="M3.47939 5.96123H9.52061V6.72548H3.47939V5.96123Z" fill="white"/>
</svg>
