<svg width="40" height="40" viewBox="0 0 40 40" fill="none" xmlns="http://www.w3.org/2000/svg">
<rect x="0.5" y="0.5" width="39" height="39" rx="19.5" fill="#ECF5FF" stroke="#ECF5FF"/>
<path d="M16.2554 20.5216H17.9914V27.7419C17.9914 27.8845 18.1058 28 18.2469 28H21.1903C21.3314 28 21.4457 27.8845 21.4457 27.7419V20.5556H23.4414C23.5712 20.5556 23.6803 20.4572 23.6952 20.327L23.9983 17.6689C24.0066 17.5957 23.9837 17.5225 23.9352 17.4676C23.8867 17.4127 23.8174 17.3813 23.7446 17.3813H21.4458V15.715C21.4458 15.2127 21.7135 14.958 22.2416 14.958C22.3168 14.958 23.7446 14.958 23.7446 14.958C23.8857 14.958 24 14.8424 24 14.6999V12.26C24 12.1174 23.8857 12.0019 23.7446 12.0019H21.6732C21.6586 12.0012 21.6262 12 21.5784 12C21.219 12 19.9697 12.0713 18.9829 12.9884C17.8896 14.0048 18.0415 15.2217 18.0779 15.4327V17.3812H16.2554C16.1143 17.3812 16 17.4967 16 17.6393V20.2635C16 20.406 16.1143 20.5216 16.2554 20.5216Z" fill="#007EFF"/>
</svg>
