<svg width="15" height="14" viewBox="0 0 15 14" fill="none" xmlns="http://www.w3.org/2000/svg">
<path d="M13.81 1.37008C13.0336 0.486588 11.9681 0 10.8097 0C9.94389 0 9.15092 0.287175 8.45284 0.85348C8.10059 1.13933 7.78141 1.48906 7.5 1.89725C7.2187 1.48918 6.89941 1.13933 6.54705 0.85348C5.84908 0.287175 5.05611 0 4.19025 0C3.03188 0 1.96632 0.486588 1.18984 1.37008C0.42263 2.24325 0 3.43613 0 4.72914C0 6.05996 0.472755 7.27817 1.48773 8.56301C2.39571 9.71231 3.70068 10.879 5.21187 12.23C5.72788 12.6914 6.31279 13.2144 6.92013 13.7714C7.08057 13.9188 7.28645 14 7.5 14C7.71343 14 7.91943 13.9188 8.07964 13.7717C8.68698 13.2145 9.27223 12.6913 9.78848 12.2297C11.2994 10.8789 12.6044 9.71231 13.5124 8.56289C14.5274 7.27817 15 6.05996 15 4.72902C15 3.43613 14.5774 2.24325 13.81 1.37008Z" fill="#E4E8EE"/>
</svg>
