<svg width="14" height="14" viewBox="0 0 14 14" fill="none" xmlns="http://www.w3.org/2000/svg">
<path d="M13.8246 6.83065C14.0784 6.54235 14.0539 6.10046 13.7699 5.84393L7.51311 0.188924C7.22911 -0.0676072 6.7738 -0.0622334 6.49578 0.201039L0.21774 6.14543C-0.0602765 6.4087 -0.0739217 6.85002 0.187528 7.13074L0.344928 7.30006C0.606059 7.58077 1.02815 7.61424 1.28709 7.37459L1.75627 6.94058V13.2946C1.75627 13.6844 2.06208 14 2.43922 14H4.88642C5.26356 14 5.56937 13.6844 5.56937 13.2946V8.84934H8.6908V13.2946C8.68536 13.6841 8.95521 13.9997 9.33235 13.9997H11.9258C12.3029 13.9997 12.6087 13.6841 12.6087 13.2943V7.03005C12.6087 7.03005 12.7383 7.14733 12.8982 7.29247C13.0578 7.43733 13.393 7.32118 13.6468 7.03259L13.8246 6.83065Z" fill="#1F2123"/>
</svg>
