<svg width="187" height="37" fill="none" xmlns="http://www.w3.org/2000/svg"><path d="M7.29 13V2.92h4.374V.4H.36v2.52h4.41V13h2.52zm16.325 0v-2.52h-8.172V7.978h7.542v-2.52h-7.542V2.92h8.172V.4H12.923V13h10.692zm3.953 0v-2.52l2.502-2.502h1.26l2.52 2.502V13h2.502V9.238l-2.502-2.52 2.502-2.52V.4H33.85v2.538l-2.52 2.52h-1.26l-2.502-2.52V.4h-2.52v3.798l2.52 2.52-2.52 2.52V13h2.52zm12.924 0V7.978h6.282V13h2.502V.4h-2.502v5.058h-6.282V.4h-2.52V13h2.52zm13.096-2.52V2.92h6.282v7.56h-6.282zM61.13 13l1.242-1.242V1.678L61.13.4h-8.82l-1.242 1.278v10.08L52.31 13h8.82zm5.374 0V5.44l2.502-2.52h3.78V13h2.502V.4h-7.542l-3.762 3.78V13h2.52zm13.1-2.52V2.92h6.282v7.56h-6.282zM87.146 13l1.242-1.242V1.678L87.146.4h-8.82l-1.242 1.278v10.08L78.326 13h8.82zm5.553 0V2.92h8.172V.4H90.179V13h2.52zm11.953 0l6.282-8.406V13h2.502V.4h-2.502l-6.282 8.388V.4h-2.52V13h2.52zm13.096-6.282V2.92h6.282v3.798h-6.282zm0 6.282v-1.242l2.502-2.52h3.78V13h2.502V.4H116.47l-1.242 1.278v6.3l1.242 1.26-1.242 1.242V13h2.52zM3.42 37v-8.496l3.366 4.842h2.106l3.294-4.842V37h2.52V24.4h-2.43l-4.464 6.102L3.42 24.4H.9V37h2.52zm15.43-6.282v-1.26l2.501-2.538h3.78v3.798H18.85zm0 6.282v-3.762h6.281V37h2.502V24.4h-7.542l-3.762 3.798V37h2.52zm25.663 0V24.4h-2.502v10.08h-3.78V24.4h-2.52v10.08H31.95V24.4h-2.52V37h15.084zm4.329 0l6.282-8.406V37h2.502V24.4h-2.502l-6.282 8.388V24.4h-2.52V37h2.52zm13.096 0v-5.022h6.282V37h2.502V24.4H68.22v5.058h-6.282V24.4h-2.52V37h2.52zm13.095-2.52v-7.56h6.282v7.56h-6.282zM82.575 37l1.242-1.242v-10.08L82.575 24.4h-8.82l-1.242 1.278v10.08L73.755 37h8.82zm13.096 0l1.242-1.242v-2.52h-2.502v1.242h-6.282v-7.56h6.282v1.26h2.502v-2.502L95.671 24.4h-8.82l-1.242 1.278v10.08L86.851 37h8.82zm9.248 0V26.92h4.374V24.4H97.989v2.52h4.41V37h2.52zm8.153-6.282V26.92h6.282v3.798h-6.282zm0 6.282v-3.762h7.542l1.242-1.26v-6.3l-1.242-1.278h-10.062V37h2.52zm12.92-2.52v-7.56h6.282v7.56h-6.282zm7.542 2.52l1.242-1.242v-10.08l-1.242-1.278h-8.82l-1.242 1.278v10.08L124.714 37h8.82zm13.726 0v-2.52h-8.172v-2.502h7.542v-2.52h-7.542V26.92h8.172V24.4h-10.692V37h10.692zm4.133 0v-5.022h6.282V37h2.502V24.4h-2.502v5.058h-6.282V24.4h-2.52V37h2.52zm13.095 0l6.282-8.406V37h2.502V24.4h-2.502l-6.282 8.388V24.4h-2.52V37h2.52zm13.096-6.282V26.92h6.282v3.798h-6.282zm0 6.282v-1.242l2.502-2.52h3.78V37h2.502V24.4h-10.062l-1.242 1.278v6.3l1.242 1.26-1.242 1.242V37h2.52z" fill="#fff"/></svg>