<svg width="8" height="16" fill="none" xmlns="http://www.w3.org/2000/svg"><path opacity=".6" d="M.255 8.522h1.736v7.22c0 .142.115.258.256.258H5.19a.257.257 0 00.256-.258V8.556H7.44c.13 0 .24-.099.254-.229l.303-2.658a.26.26 0 00-.063-.201.254.254 0 00-.19-.087h-2.3V3.715c0-.502.269-.757.797-.757h1.503A.257.257 0 008 2.7V.26a.257.257 0 00-.255-.258H5.673A2.01 2.01 0 005.578 0C5.22 0 3.97.07 2.983.988c-1.093 1.017-.941 2.234-.905 2.445V5.38H.255A.257.257 0 000 5.64v2.624c0 .143.114.259.255.259z" fill="#fff"/></svg>