<svg width="17" height="12" fill="none" xmlns="http://www.w3.org/2000/svg"><path opacity=".6" d="M16.624 1.715l.021.138A2.151 2.151 0 0015.18.363l-.015-.004c-1.325-.36-6.658-.36-6.658-.36S3.187-.006 1.85.36A2.152 2.152 0 00.374 1.84l-.003.014c-.495 2.577-.499 5.674.022 8.433l-.022-.14a2.15 2.15 0 001.465 1.491l.015.004C3.174 12 8.508 12 8.508 12s5.319 0 6.658-.36a2.152 2.152 0 001.476-1.479l.004-.015A21.99 21.99 0 0017 6.16v-.318c0-1.41-.129-2.789-.376-4.126zM6.806 8.577V3.43l4.438 2.578-4.438 2.57z" fill="#fff"/></svg>