<svg width="18" height="10" fill="none" xmlns="http://www.w3.org/2000/svg"><path opacity=".6" d="M17.84 8.92c-.049-.08-.348-.713-1.788-2.014-1.508-1.363-1.305-1.142.51-3.498 1.107-1.435 1.549-2.311 1.41-2.686-.131-.357-.945-.263-.945-.263l-2.704.015s-.2-.026-.35.06c-.146.086-.239.283-.239.283s-.428 1.111-1 2.055c-1.205 1.993-1.688 2.098-1.885 1.974-.457-.288-.343-1.159-.343-1.776 0-1.932.3-2.737-.586-2.945C9.625.055 9.41.01 8.657.002 7.69-.008 6.873.006 6.41.226c-.308.146-.546.474-.4.493.178.023.583.106.798.39.278.368.268 1.194.268 1.194s.16 2.273-.372 2.555c-.366.194-.867-.201-1.941-2.01-.55-.925-.967-1.95-.967-1.95s-.08-.19-.222-.292C3.4.482 3.158.443 3.158.443L.586.458S.201.468.06.632c-.126.146-.01.446-.01.446s2.014 4.587 4.293 6.9c2.091 2.119 4.465 1.98 4.465 1.98h1.076s.325-.035.49-.21c.154-.16.148-.46.148-.46s-.022-1.405.65-1.612c.66-.204 1.508 1.358 2.407 1.96.68.454 1.196.355 1.196.355l2.404-.033s1.258-.076.662-1.039z" fill="#fff"/></svg>