<svg width="16" height="16" fill="none" xmlns="http://www.w3.org/2000/svg"><g opacity=".6" fill="#fff"><path d="M15.96 4.704c-.038-.85-.176-1.435-.373-1.941a3.905 3.905 0 00-.925-1.419 3.94 3.94 0 00-1.416-.922c-.51-.197-1.091-.335-1.942-.372-.856-.04-1.128-.05-3.3-.05-2.174 0-2.447.01-3.3.047-.85.037-1.435.175-1.941.372a3.905 3.905 0 00-1.42.925A3.94 3.94 0 00.422 2.76C.225 3.27.088 3.85.05 4.7.01 5.558 0 5.83 0 8.003s.01 2.444.047 3.297c.037.85.175 1.435.372 1.941.203.538.519 1.019.925 1.42.4.405.885.721 1.416.921.51.197 1.091.335 1.942.372C5.555 15.991 5.827 16 8 16s2.445-.01 3.298-.047c.85-.037 1.435-.175 1.941-.372a4.093 4.093 0 002.342-2.34c.197-.51.335-1.092.372-1.942.038-.853.047-1.125.047-3.297 0-2.173-.003-2.445-.04-3.298zm-1.442 6.532c-.034.782-.166 1.204-.275 1.485a2.654 2.654 0 01-1.52 1.52c-.28.109-.706.24-1.484.274-.844.038-1.098.047-3.233.047s-2.391-.01-3.232-.047c-.782-.034-1.204-.165-1.485-.275a2.463 2.463 0 01-.92-.597 2.488 2.488 0 01-.596-.919c-.11-.28-.241-.706-.275-1.484-.038-.844-.047-1.097-.047-3.232 0-2.135.009-2.391.047-3.232.034-.781.165-1.203.275-1.485.128-.347.331-.662.6-.919.26-.265.572-.469.919-.597.281-.11.707-.24 1.485-.275.844-.037 1.097-.047 3.232-.047 2.139 0 2.392.01 3.233.047.781.035 1.203.166 1.485.275.347.128.663.332.919.597.266.26.469.572.597.92.11.28.24.706.275 1.484.038.844.047 1.097.047 3.232 0 2.135-.01 2.385-.047 3.229z"/><path d="M8.003 3.891a4.112 4.112 0 00-4.11 4.11 4.112 4.112 0 008.221 0 4.111 4.111 0 00-4.11-4.11zm0 6.777a2.667 2.667 0 110-5.334 2.667 2.667 0 010 5.334zm5.233-6.939a.96.96 0 11-1.919 0 .96.96 0 011.92 0z"/></g></svg>