<svg width="18" height="10" viewBox="0 0 18 10" fill="none" xmlns="http://www.w3.org/2000/svg">
<path opacity="0.6" d="M17.8396 8.91931C17.7912 8.84044 17.4919 8.20726 16.0518 6.90584C14.5442 5.54309 14.7467 5.76437 16.5626 3.40802C17.6685 1.97296 18.1107 1.09659 17.9723 0.721943C17.8407 0.364822 17.0273 0.459032 17.0273 0.459032L14.3226 0.474368C14.3226 0.474368 14.1223 0.448077 13.9727 0.534619C13.8275 0.620065 13.7341 0.817249 13.7341 0.817249C13.7341 0.817249 13.3055 1.92805 12.7339 2.87234C11.529 4.86499 11.0463 4.97016 10.8494 4.84637C10.3915 4.55826 10.5063 3.68737 10.5063 3.06953C10.5063 1.13822 10.8067 0.333053 9.9201 0.124915C9.62533 0.0559005 9.40932 0.00989095 8.65664 0.00222269C7.69132 -0.00763649 6.87338 0.00550909 6.41097 0.225698C6.1027 0.37249 5.86531 0.700034 6.01044 0.718657C6.18933 0.741662 6.59436 0.824917 6.80925 1.10974C7.08715 1.47672 7.07702 2.3027 7.07702 2.3027C7.07702 2.3027 7.23678 4.57579 6.70462 4.85842C6.33897 5.05232 5.8383 4.65685 4.76385 2.84824C4.21369 1.92257 3.79741 0.898314 3.79741 0.898314C3.79741 0.898314 3.71752 0.707702 3.57464 0.605824C3.40138 0.482037 3.15836 0.4426 3.15836 0.4426L0.586419 0.457936C0.586419 0.457936 0.200516 0.468891 0.0587555 0.632115C-0.0672538 0.777812 0.0486297 1.07797 0.0486297 1.07797C0.0486297 1.07797 2.06253 5.66468 4.34195 7.97721C6.43347 10.0969 8.8074 9.95781 8.8074 9.95781H9.88298C9.88298 9.95781 10.2081 9.92276 10.3735 9.74858C10.5265 9.58864 10.5209 9.28848 10.5209 9.28848C10.5209 9.28848 10.4995 7.883 11.1701 7.67596C11.8305 7.4722 12.6788 9.03433 13.5777 9.63574C14.2573 10.0904 14.7737 9.99067 14.7737 9.99067L17.178 9.95781C17.178 9.95781 18.4359 9.88222 17.8396 8.91931Z" fill="white"/>
</svg>
