<svg width="40" height="40" viewBox="0 0 40 40" fill="none" xmlns="http://www.w3.org/2000/svg">
<rect x="0.5" y="0.5" width="39" height="39" rx="19.5" fill="#ECF5FF" stroke="#F2F2F2"/>
<path d="M28 14.6574C27.405 14.9385 26.771 15.1248 26.11 15.2152C26.79 14.778 27.309 14.0909 27.553 13.2628C26.919 13.6698 26.219 13.9574 25.473 14.1178C24.871 13.4275 24.013 13 23.077 13C21.261 13 19.799 14.5874 19.799 16.5334C19.799 16.8134 19.821 17.0826 19.875 17.3389C17.148 17.1957 14.735 15.7882 13.114 13.644C12.831 14.1728 12.665 14.778 12.665 15.4295C12.665 16.6529 13.25 17.7374 14.122 18.3652C13.595 18.3545 13.078 18.1897 12.64 17.9302C12.64 17.9409 12.64 17.9549 12.64 17.9689C12.64 19.6855 13.777 21.1114 15.268 21.4398C15.001 21.5185 14.71 21.5562 14.408 21.5562C14.198 21.5562 13.986 21.5432 13.787 21.4958C14.212 22.8948 15.418 23.9232 16.852 23.9566C15.736 24.8968 14.319 25.4632 12.785 25.4632C12.516 25.4632 12.258 25.4503 12 25.4148C13.453 26.4238 15.175 27 17.032 27C23.068 27 26.368 21.6154 26.368 16.948C26.368 16.7918 26.363 16.6411 26.356 16.4914C27.007 15.9938 27.554 15.3725 28 14.6574Z" fill="#007EFF"/>
</svg>
