<svg width="40" height="40" viewBox="0 0 40 40" fill="none" xmlns="http://www.w3.org/2000/svg">
<rect width="40" height="40" rx="20" fill="#ECF5FF"/>
<path d="M28.8396 23.9194C28.7912 23.8405 28.4919 23.2073 27.0518 21.9059C25.5442 20.5431 25.7467 20.7644 27.5626 18.4081C28.6685 16.973 29.1107 16.0967 28.9723 15.722C28.8407 15.3649 28.0273 15.4591 28.0273 15.4591L25.3226 15.4744C25.3226 15.4744 25.1223 15.4481 24.9727 15.5347C24.8275 15.6201 24.7341 15.8173 24.7341 15.8173C24.7341 15.8173 24.3055 16.9281 23.7339 17.8724C22.529 19.8651 22.0463 19.9702 21.8494 19.8464C21.3915 19.5583 21.5063 18.6874 21.5063 18.0696C21.5063 16.1383 21.8067 15.3331 20.9201 15.125C20.6253 15.056 20.4093 15.01 19.6566 15.0023C18.6913 14.9924 17.8734 15.0056 17.411 15.2258C17.1027 15.3726 16.8653 15.7001 17.0104 15.7187C17.1893 15.7417 17.5944 15.825 17.8093 16.1098C18.0871 16.4768 18.077 17.3028 18.077 17.3028C18.077 17.3028 18.2368 19.5759 17.7046 19.8585C17.339 20.0524 16.8383 19.6569 15.7639 17.8483C15.2137 16.9226 14.7974 15.8984 14.7974 15.8984C14.7974 15.8984 14.7175 15.7078 14.5746 15.6059C14.4014 15.4821 14.1584 15.4427 14.1584 15.4427L11.5864 15.458C11.5864 15.458 11.2005 15.469 11.0588 15.6322C10.9327 15.7779 11.0486 16.078 11.0486 16.078C11.0486 16.078 13.0625 20.6647 15.3419 22.9773C17.4335 25.097 19.8074 24.9579 19.8074 24.9579H20.883C20.883 24.9579 21.2081 24.9228 21.3735 24.7486C21.5265 24.5887 21.5209 24.2885 21.5209 24.2885C21.5209 24.2885 21.4995 22.8831 22.1701 22.676C22.8305 22.4723 23.6788 24.0344 24.5777 24.6358C25.2573 25.0904 25.7737 24.9907 25.7737 24.9907L28.178 24.9579C28.178 24.9579 29.4359 24.8823 28.8396 23.9194Z" fill="#007EFF"/>
</svg>
